<svg width="48" height="48" viewBox="0 0 48 48" fill="none" xmlns="http://www.w3.org/2000/svg">
<path d="M44.9381 14.3212C45.0742 13.6315 44.9807 12.9163 44.6719 12.2848C44.3631 11.6533 43.856 11.1403 43.2281 10.8243L25.4344 1.92741C24.9885 1.70634 24.4976 1.59131 24 1.59131C23.5023 1.59131 23.0114 1.70634 22.5656 1.92741L4.77186 10.8243C4.14397 11.1403 3.63687 11.6533 3.32807 12.2848C3.01927 12.9163 2.92576 13.6315 3.06186 14.3212L5.55373 26.7768C6.57803 31.9029 9.47851 36.4623 13.6875 39.5624L14.4581 40.1249C14.5044 38.9927 14.687 37.8703 15.0019 36.7818C11.6439 34.1324 9.33989 30.3733 8.5031 26.1787L5.99998 13.7324C5.99177 13.688 5.9981 13.6421 6.01803 13.6016C6.03796 13.5611 6.07043 13.528 6.11061 13.5074L23.9044 4.61054C23.9336 4.59642 23.9656 4.58909 23.9981 4.58909C24.0306 4.58909 24.0626 4.59642 24.0919 4.61054L41.8856 13.4999C41.9258 13.5205 41.9583 13.5536 41.9782 13.5941C41.9981 13.6346 42.0044 13.6805 41.9962 13.7249L39.5044 26.1824C39.2104 27.6474 38.7355 29.0702 38.0906 30.418C38.8844 31.1578 39.5897 31.9871 40.1925 32.8893C41.2565 30.9789 42.0157 28.914 42.4425 26.7693L44.9381 14.3212Z" fill="url(#paint0_linear_1_4200)"/>
<path d="M34.2994 30.2024L31.3687 28.5842C32.3166 28.0682 33.1078 27.3061 33.6588 26.3782C34.2099 25.4503 34.5005 24.391 34.5 23.3117V20.938C34.5 19.3467 33.8679 17.8206 32.7426 16.6953C31.6174 15.5701 30.0913 14.938 28.5 14.938C26.9087 14.938 25.3826 15.5701 24.2574 16.6953C23.1321 17.8206 22.5 19.3467 22.5 20.938V23.3117C22.4995 24.391 22.7901 25.4503 23.3412 26.3782C23.8922 27.3061 24.6834 28.0682 25.6313 28.5842L22.7006 30.2024C20.8231 31.2388 19.2577 32.7594 18.1672 34.6061C17.0767 36.4527 16.501 38.5578 16.5 40.7024V43.4999C16.5 43.8977 16.658 44.2792 16.9393 44.5605C17.2206 44.8418 17.6022 44.9999 18 44.9999H39C39.3978 44.9999 39.7794 44.8418 40.0607 44.5605C40.342 44.2792 40.5 43.8977 40.5 43.4999V40.708C40.5 38.5625 39.9248 36.4562 38.8342 34.6085C37.7437 32.7608 36.1777 31.2393 34.2994 30.2024Z" fill="url(#paint1_linear_1_4200)"/>
<defs>
<linearGradient id="paint0_linear_1_4200" x1="3.00098" y1="1.59131" x2="22.4619" y2="49.3151" gradientUnits="userSpaceOnUse">
<stop offset="0.272135" stop-color="#34263B"/>
<stop offset="0.658079" stop-color="#13172C"/>
</linearGradient>
<linearGradient id="paint1_linear_1_4200" x1="17.1279" y1="17.2973" x2="41.2816" y2="36.5805" gradientUnits="userSpaceOnUse">
<stop offset="0.35" stop-color="#F7052D"/>
<stop offset="0.85" stop-color="#CA5AFA"/>
</linearGradient>
</defs>
</svg>
