<svg width="56" height="56" viewBox="0 0 56 56" fill="none" xmlns="http://www.w3.org/2000/svg">
<path d="M54.25 34.9999C54.2493 33.6908 53.8816 32.4081 53.1886 31.2976C52.4955 30.187 51.5049 29.293 50.3293 28.7171C49.1537 28.1412 47.8402 27.9066 46.5379 28.0397C45.2356 28.1729 43.9967 28.6686 42.962 29.4705C41.9273 30.2724 41.1382 31.3484 40.6843 32.5763C40.2304 33.8042 40.1299 35.1347 40.3942 36.4168C40.6585 37.699 41.2771 38.8813 42.1796 39.8295C43.0821 40.7777 44.2325 41.4539 45.5 41.7811V52.4999H49V41.7811C50.5032 41.393 51.8347 40.5162 52.7851 39.2886C53.7355 38.0611 54.2508 36.5524 54.25 34.9999V34.9999Z" fill="url(#paint0_linear_1_4225)"/>
<path d="M42.875 49H35V42C35 40.1435 34.2625 38.363 32.9498 37.0503C31.637 35.7375 29.8565 35 28 35C26.1435 35 24.363 35.7375 23.0502 37.0503C21.7375 38.363 21 40.1435 21 42V49H9.625V20.3438H9.50469L26.4819 8.34315C26.9247 8.03055 27.4535 7.86272 27.9956 7.86272C28.5377 7.86272 29.0665 8.03055 29.5094 8.34315L46.375 20.2453V25.4166C46.6638 25.3903 46.9547 25.375 47.25 25.375C48.1378 25.3749 49.0213 25.4986 49.875 25.7425V22.715L54.25 25.8125V21.5185L31.5284 5.4819C30.4939 4.7538 29.2596 4.36304 27.9945 4.36304C26.7294 4.36304 25.4952 4.7538 24.4606 5.4819L1.75 21.5382V25.8257L6.125 22.7325V49C6.125 49.9283 6.49375 50.8185 7.15012 51.4749C7.8065 52.1313 8.69674 52.5 9.625 52.5H42.875V49ZM31.5 49H24.5V42C24.5 41.0718 24.8687 40.1815 25.5251 39.5252C26.1815 38.8688 27.0717 38.5 28 38.5C28.9283 38.5 29.8185 38.8688 30.4749 39.5252C31.1313 40.1815 31.5 41.0718 31.5 42V49Z" fill="url(#paint1_linear_1_4225)"/>
<defs>
<linearGradient id="paint0_linear_1_4225" x1="40.6163" y1="29.926" x2="58.0062" y2="39.8645" gradientUnits="userSpaceOnUse">
<stop offset="0.35" stop-color="#F7052D"/>
<stop offset="0.85" stop-color="#CA5AFA"/>
</linearGradient>
<linearGradient id="paint1_linear_1_4225" x1="1.75" y1="4.36304" x2="26.0494" y2="63.992" gradientUnits="userSpaceOnUse">
<stop offset="0.272135" stop-color="#34263B"/>
<stop offset="0.658079" stop-color="#13172C"/>
</linearGradient>
</defs>
</svg>
