<svg width="48" height="48" viewBox="0 0 48 48" fill="none" xmlns="http://www.w3.org/2000/svg">
<path d="M43.2281 10.8243L25.4344 1.92741C24.9885 1.70634 24.4976 1.59131 24 1.59131C23.5023 1.59131 23.0114 1.70634 22.5656 1.92741L4.77186 10.8243C4.14397 11.1403 3.63687 11.6533 3.32807 12.2848C3.01927 12.9163 2.92576 13.6315 3.06186 14.3212L5.55373 26.7768C6.57803 31.9029 9.47851 36.4623 13.6875 39.5624L22.1025 45.778C22.6529 46.1883 23.321 46.4099 24.0075 46.4099C24.694 46.4099 25.3621 46.1883 25.9125 45.778L26.9756 44.9924C26.2684 44.2828 25.6472 43.4924 25.125 42.6374L24.1312 43.3705C24.0961 43.397 24.0533 43.4113 24.0094 43.4113C23.9654 43.4113 23.9226 43.397 23.8875 43.3705L15.4725 37.1549C14.7979 36.6562 14.1583 36.1118 13.5581 35.5255C13.8205 33.9482 14.4363 32.4506 15.3595 31.145C16.2826 29.8394 17.4891 28.7595 18.8887 27.9862L21 26.8124C22.1415 27.3106 23.3891 27.5167 24.6301 27.412C25.8712 27.3074 27.0667 26.8953 28.1086 26.213C29.1506 25.5307 30.0062 24.5997 30.5983 23.5039C31.1904 22.4082 31.5003 21.1823 31.5 19.9368V17.563C31.5 15.5739 30.7098 13.6663 29.3033 12.2597C27.8968 10.8532 25.9891 10.063 24 10.063C22.0109 10.063 20.1032 10.8532 18.6967 12.2597C17.2902 13.6663 16.5 15.5739 16.5 17.563V19.9368C16.4991 21.7455 17.1547 23.493 18.345 24.8549L17.4375 25.3593C14.5371 26.9619 12.3216 29.5681 11.2069 32.6887C9.88671 30.7215 8.9679 28.513 8.50311 26.1899L5.99998 13.7324C5.99177 13.688 5.9981 13.6421 6.01803 13.6016C6.03796 13.5611 6.07042 13.528 6.11061 13.5074L23.9044 4.61054C23.9336 4.59642 23.9656 4.58909 23.9981 4.58909C24.0306 4.58909 24.0626 4.59642 24.0919 4.61054L41.8856 13.4999C41.9258 13.5205 41.9583 13.5536 41.9782 13.5941C41.9981 13.6346 42.0044 13.6805 41.9962 13.7249L39.9656 23.8724C40.9484 24.1935 41.888 24.6343 42.7631 25.1849L44.9381 14.3099C45.0715 13.622 44.9767 12.9093 44.6681 12.2801C44.3594 11.651 43.8538 11.1398 43.2281 10.8243V10.8243ZM19.5 17.563C19.5 16.3696 19.9741 15.225 20.818 14.3811C21.6619 13.5371 22.8065 13.063 24 13.063C25.1935 13.063 26.3381 13.5371 27.182 14.3811C28.0259 15.225 28.5 16.3696 28.5 17.563V19.9368C28.5 21.1303 28.0259 22.2749 27.182 23.1188C26.3381 23.9627 25.1935 24.4368 24 24.4368C22.8065 24.4368 21.6619 23.9627 20.818 23.1188C19.9741 22.2749 19.5 21.1303 19.5 19.9368V17.563Z" fill="url(#paint0_linear_1_4208)"/>
<path d="M43.425 28.575C41.9565 27.1067 40.0856 26.1067 38.0488 25.7017C36.012 25.2966 33.9009 25.5046 31.9823 26.2994C30.0637 27.0941 28.4239 28.4399 27.2702 30.1666C26.1165 31.8933 25.5007 33.9233 25.5007 36C25.5007 38.0767 26.1165 40.1067 27.2702 41.8334C28.4239 43.5601 30.0637 44.9059 31.9823 45.7006C33.9009 46.4954 36.012 46.7034 38.0488 46.2983C40.0856 45.8933 41.9565 44.8933 43.425 43.425C44.4001 42.45 45.1736 41.2924 45.7014 40.0184C46.2291 38.7444 46.5007 37.379 46.5007 36C46.5007 34.621 46.2291 33.2556 45.7014 31.9816C45.1736 30.7076 44.4001 29.55 43.425 28.575V28.575ZM42 37.5H37.5V42H34.5V37.5H30V34.5H34.5V30H37.5V34.5H42V37.5Z" fill="url(#paint1_linear_1_4208)"/>
<defs>
<linearGradient id="paint0_linear_1_4208" x1="3.00098" y1="1.59131" x2="28.0678" y2="54.4397" gradientUnits="userSpaceOnUse">
<stop offset="0.272135" stop-color="#34263B"/>
<stop offset="0.658079" stop-color="#13172C"/>
</linearGradient>
<linearGradient id="paint1_linear_1_4208" x1="26.0501" y1="27.1481" x2="43.3526" y2="44.4506" gradientUnits="userSpaceOnUse">
<stop offset="0.35" stop-color="#F7052D"/>
<stop offset="0.85" stop-color="#CA5AFA"/>
</linearGradient>
</defs>
</svg>
