<svg width="24" height="24" viewBox="0 0 24 24" fill="none" xmlns="http://www.w3.org/2000/svg">
<path d="M12 0.5C18.3239 0.5 23.5 5.67614 23.5 12C23.5 18.3239 18.3239 23.5 12 23.5C5.67614 23.5 0.5 18.3239 0.5 12C0.5 5.67614 5.67614 0.5 12 0.5Z" stroke="#C5CBE0" stroke-linecap="square"/>
<path fill-rule="evenodd" clip-rule="evenodd" d="M12 0C5.4 0 0 5.4 0 12C0 18.6 5.4 24 12 24C18.6 24 24 18.6 24 12C24 5.4 18.6 0 12 0Z" fill="#389E0D"/>
<path fill-rule="evenodd" clip-rule="evenodd" d="M17.1813 7.11287C17.5607 7.43394 17.6081 8.00182 17.287 8.38127L10.687 16.1813C10.5215 16.3768 10.2806 16.4926 10.0245 16.4996C9.76844 16.5066 9.52153 16.4041 9.34564 16.2179L5.94564 12.6179C5.60435 12.2565 5.62063 11.6869 5.98199 11.3456C6.34336 11.0043 6.91297 11.0206 7.25427 11.382L9.96311 14.2501L15.9129 7.21857C16.234 6.83913 16.8019 6.7918 17.1813 7.11287Z" fill="white"/>
</svg>
